<?xml version="1.0" encoding="UTF-8" standalone="no"?><!DOCTYPE svg PUBLIC "-//W3C//DTD SVG 1.1//EN" "http://www.w3.org/Graphics/SVG/1.1/DTD/svg11.dtd"><svg width="100%" height="100%" viewBox="0 0 1497 1497" version="1.1" xmlns="http://www.w3.org/2000/svg" xmlns:xlink="http://www.w3.org/1999/xlink" xml:space="preserve" xmlns:serif="http://www.serif.com/" style="fill-rule:evenodd;clip-rule:evenodd;stroke-linejoin:round;stroke-miterlimit:2;"><g><rect x="0" y="0" width="1497" height="1497" style="fill:#28544b;"/></g><g><path d="M749.136,735.411c28.06,-0 53.86,10.373 73.409,27.528c-14.762,3.192 -29.523,6.25 -44.152,9.442c-9.043,-3.591 -18.884,-5.586 -29.257,-5.586c-22.076,0 -42.157,8.911 -56.52,23.406l-2.261,2.394c-14.894,3.591 -29.523,7.314 -43.885,11.038c5.585,-13.432 13.83,-25.534 23.937,-35.641c20.081,-20.081 48.009,-32.581 78.729,-32.581Zm-115.832,196.555l32.981,-10.772l34.044,-11.171l125.673,-41.093l33.912,-11.171l398.297,-130.328c4.522,-1.463 8.245,-4.521 10.373,-8.245c2.128,-3.591 2.793,-7.846 1.596,-12.102c-1.064,-4.255 -3.857,-7.58 -7.314,-9.575c-3.857,-2.128 -8.512,-2.926 -13.166,-1.995l-410.133,86.309l-34.976,7.314l-129.396,27.263l-35.109,7.314l-33.912,7.181c-9.974,2.66 -20.48,9.043 -27.395,18.619c-17.554,24.336 -5.984,67.69 21.411,80.058c10.905,4.787 23.007,5.053 33.114,2.394Zm619.454,-275.417c3.059,7.846 5.852,15.693 8.379,23.672c-4.655,-1.064 -9.708,-1.064 -14.762,-0c-36.172,7.58 -74.074,15.027 -113.039,22.608c-20.081,-64.632 -52.397,-114.768 -97.48,-164.506l79.66,-79.792c61.573,57.584 106.921,119.024 137.242,198.018Zm23.273,78.197c11.703,53.593 15.294,105.99 15.294,160.648l-134.45,0c-0,-38.965 -1.33,-77.398 -6.783,-116.098l112.907,-36.97c4.92,-1.596 9.442,-4.123 13.032,-7.58Zm-1070.55,152.802c-0,-70.084 7.181,-133.652 25.533,-193.763c18.353,-60.243 47.876,-116.895 92.693,-173.149c36.172,-45.349 79.659,-85.112 128.997,-117.029c47.876,-31.252 101.469,-55.189 159.053,-70.084l9.841,-2.527l-0,67.292l-5.718,1.596c-48.142,13.83 -92.959,34.975 -133.121,61.839c-41.093,27.395 -77.531,61.174 -108.118,99.474c-39.897,50.136 -65.829,100.273 -81.788,153.467c-15.958,53.328 -22.075,109.981 -22.075,172.884l-0,7.846l-65.297,0l-0,-7.846Zm880.774,-442.848l-71.813,71.946l-5.585,-5.186c-47.211,-43.354 -102.4,-75.67 -161.58,-95.884c-59.312,-20.081 -122.747,-27.927 -186.714,-22.209l-8.511,0.665l0,-69.419l6.649,-1.064c75.67,-12.767 152.404,-9.176 225.281,9.442c72.744,18.618 141.498,52.397 201.609,100.006l6.915,5.453l-6.251,6.25Zm-229.536,430.746c-5.053,19.283 -15.16,36.439 -28.858,50.003c-20.081,20.214 -48.008,32.715 -78.728,32.715c-26.465,0 -50.668,-9.309 -69.819,-24.602l39.232,-12.9c9.442,3.856 19.815,6.117 30.587,6.117c22.076,0 42.157,-9.043 56.519,-23.539c4.522,-4.388 8.512,-9.442 11.836,-14.894l39.231,-12.9Z" style="fill:#fff;fill-rule:nonzero;"/></g></svg>
